<?xml version="1.0" standalone="no"?>
<!DOCTYPE svg PUBLIC "-//W3C//DTD SVG 20010904//EN"
 "http://www.w3.org/TR/2001/REC-SVG-20010904/DTD/svg10.dtd">
<svg version="1.0" xmlns="http://www.w3.org/2000/svg"
 width="256.000000pt" height="256.000000pt" viewBox="0 0 256.000000 256.000000"
 preserveAspectRatio="xMidYMid meet">
<metadata>
Created by potrace 1.10, written by Peter Selinger 2001-2011
</metadata>
<g transform="translate(0.000000,256.000000) scale(0.100000,-0.100000)"
fill="#ce5757" stroke="none">
<path d="M1169 2520 c-335 -53 -589 -354 -589 -695 0 -188 49 -315 255 -654
246 -407 338 -647 385 -1011 15 -117 22 -130 65 -130 46 0 61 26 69 120 8 99
47 282 86 403 69 215 155 390 321 654 104 166 184 328 209 427 41 163 21 365
-51 507 -87 173 -260 315 -444 363 -74 20 -231 28 -306 16z m239 -421 c72 -31
119 -75 153 -144 26 -54 31 -76 32 -137 0 -61 -5 -83 -28 -131 -56 -113 -147
-169 -275 -169 -127 0 -220 56 -278 167 -34 67 -37 186 -5 256 46 103 135 167
247 179 71 8 95 5 154 -21z"/>
</g>
</svg>
